<?xml version="1.0" encoding="UTF-8" standalone="no"?>
<!DOCTYPE svg PUBLIC "-//W3C//DTD SVG 1.1//EN" "http://www.w3.org/Graphics/SVG/1.1/DTD/svg11.dtd">
<svg width="100%" height="100%" viewBox="0 0 596 842" version="1.1" xmlns="http://www.w3.org/2000/svg" xmlns:xlink="http://www.w3.org/1999/xlink" xml:space="preserve" xmlns:serif="http://www.serif.com/" style="fill-rule:evenodd;clip-rule:evenodd;stroke-miterlimit:10;">
    <g id="Ebene-3" serif:id="Ebene 3">
        <g transform="matrix(143.321,0,0,-143.321,219.661,411.172)">
            <path d="M0.506,0.542C0.438,0.533 0.367,0.523 0.299,0.469C0.235,0.418 0.209,0.355 0.19,0.309C0.149,0.21 0.148,0.123 0.148,0.054C0.149,-0.081 0.178,-0.122 0.156,-0.241C0.148,-0.287 0.135,-0.323 0.112,-0.357C0.075,-0.409 0.027,-0.436 0,-0.448C0.071,-0.48 0.188,-0.523 0.339,-0.53C0.428,-0.535 0.57,-0.54 0.722,-0.464C0.792,-0.429 0.941,-0.354 0.986,-0.196C0.992,-0.174 1.016,-0.088 0.983,0.007C0.949,0.102 0.874,0.163 0.869,0.168C0.827,0.201 0.793,0.204 0.776,0.243C0.757,0.285 0.771,0.329 0.773,0.338C0.778,0.356 0.787,0.385 0.81,0.4C0.84,0.42 0.883,0.408 0.915,0.396C0.939,0.387 0.958,0.377 0.96,0.382C0.967,0.393 0.897,0.465 0.792,0.509C0.717,0.54 0.647,0.548 0.592,0.548C0.555,0.548 0.525,0.544 0.506,0.542Z" style="fill:url(#_Linear1);fill-rule:nonzero;"/>
        </g>
        <g transform="matrix(1,0,0,1,240.941,415.837)">
            <path d="M0,-12.357C-0.01,-22.271 0.098,-34.816 5.956,-49C8.664,-55.557 12.405,-64.615 21.562,-71.922C31.273,-79.67 41.518,-81.014 51.289,-82.297C57.816,-83.154 74.144,-85.096 92.2,-77.601C107.344,-71.314 117.31,-61.043 116.376,-59.444C115.436,-57.836 102.402,-67.098 94.757,-61.98C91.471,-59.78 90.262,-55.653 89.505,-53.067C89.155,-51.873 87.281,-45.471 89.897,-39.56C92.407,-33.89 97.201,-33.438 103.211,-28.679C103.992,-28.061 114.744,-19.345 119.535,-5.644C124.306,8 120.963,20.284 120.045,23.486C113.575,46.067 92.219,56.778 82.238,61.784C60.396,72.739 40.049,71.956 27.257,71.309C5.721,70.22 -11.113,64.094 -21.281,59.501C-17.376,57.754 -10.507,53.998 -5.288,46.538C-1.865,41.646 -0.102,36.517 1.125,29.855C4.248,12.888 0.019,6.984 0,-12.357Z" style="fill:none;fill-rule:nonzero;stroke:white;stroke-width:5px;"/>
        </g>
    </g>
    <g id="Ebene-2" serif:id="Ebene 2">
        <g transform="matrix(1,0,0,1,218.262,351.031)">
            <path d="M0,123.729C5.461,126.021 12.994,128.84 22.201,131.25C30.579,133.442 41.002,136.238 54.67,136.226C58.41,136.222 70.668,136.018 86.153,131.571C99.365,127.777 114.157,123.529 126.967,110.36C131.817,105.376 141.612,95.02 143.679,78.866C144.125,75.378 145.243,65.719 140.804,55.33C138.386,49.671 132.748,44.03 121.826,32.589C114.422,24.834 111.167,22.048 111.098,17.13C111.033,12.452 113.865,6.95 118.409,4.786C126.88,0.752 137.331,4.839 138.934,6.42" style="fill:none;fill-rule:nonzero;stroke:rgb(32,58,116);stroke-width:11px;"/>
        </g>
        <g transform="matrix(0,-1,-1,0,303.174,373.527)">
            <circle cx="-4.254" cy="0" r="4.254" style="fill:none;stroke:rgb(1,2,3);stroke-width:11px;"/>
        </g>
        <g transform="matrix(1,0,0,1,280.223,406.894)">
            <path d="M0,-2.316C-6.273,-1.207 -13.559,-0.345 -21.68,-0.148C-27.778,0 -33.393,-0.251 -38.432,-0.715" style="fill:none;fill-rule:nonzero;stroke:rgb(29,29,27);stroke-width:11px;stroke-linecap:round;"/>
        </g>
        <g transform="matrix(1,0,0,1,218.002,326.044)">
            <path d="M0,148.606C7.133,145.654 16.593,140.311 21.488,130.424C25.619,122.081 23.732,116.089 23.232,95.399C22.765,76.092 22.532,66.439 25.087,55.008C27.22,45.46 30.442,30.947 42.976,19.127C54.65,8.117 68.028,5.447 72.966,4.528C90.342,1.293 105.137,6.185 114.071,10.455C115.169,10.979 117.565,12.095 120.497,14.052C123.101,15.791 126.127,18.243 129.038,20.806C131.312,22.808 140.048,30.671 138.732,31.616" style="fill:none;fill-rule:nonzero;stroke:rgb(1,2,3);stroke-width:11px;stroke-linecap:round;"/>
        </g>
        <g transform="matrix(-0.999711,-0.0240355,-0.0240355,0.999711,304.949,506.113)">
            <path d="M23.753,-42.803C22.802,-40.439 21.946,-37.809 21.295,-34.923C18.297,-21.624 21.279,-10.024 23.753,-3.237C21.124,-3.809 17.715,-4.272 13.749,-4.101C7.034,-3.812 1.77,-1.841 -1.465,-0.308" style="fill:none;fill-rule:nonzero;stroke:rgb(29,29,27);stroke-width:8px;stroke-linecap:round;"/>
        </g>
        <g transform="matrix(-0.0780859,-0.996947,-0.996947,0.0780859,361.358,467.626)">
            <path d="M-35.585,-5.664C-34.62,-2.506 -33.683,1.692 -33.48,6.683C-33.201,13.567 -34.431,19.223 -35.585,23.01C-31.672,23.576 -27.416,24.394 -22.902,25.57C-15.182,27.58 -8.523,30.161 -3.005,32.732" style="fill:none;fill-rule:nonzero;stroke:rgb(29,29,27);stroke-width:8px;stroke-linecap:round;"/>
        </g>
        <g transform="matrix(0,-1,-1,0,297.638,275.647)">
            <circle cx="-145.298" cy="0" r="145.298" style="fill:none;stroke:rgb(32,58,116);stroke-width:36px;"/>
        </g>
        <g transform="matrix(0,-1,-1,0,297.638,259.103)">
            <ellipse cx="-161.842" cy="0" rx="161.842" ry="161.842" style="fill:none;stroke:rgb(29,29,27);stroke-width:8px;"/>
        </g>
        <g transform="matrix(0,-1,-1,0,297.638,293.671)">
            <circle cx="-127.274" cy="0" r="127.274" style="fill:none;stroke:rgb(29,29,27);stroke-width:8.85px;"/>
        </g>
    </g>
    <defs>
        <linearGradient id="_Linear1" x1="0" y1="0" x2="1" y2="0" gradientUnits="userSpaceOnUse" gradientTransform="matrix(1,0,0,-1,0,0.00770245)"><stop offset="0" style="stop-color:rgb(46,176,232);stop-opacity:1"/><stop offset="1" style="stop-color:white;stop-opacity:1"/></linearGradient>
    </defs>
</svg>
