<?xml version="1.0" encoding="UTF-8" standalone="no"?>
<!DOCTYPE svg PUBLIC "-//W3C//DTD SVG 1.1//EN" "http://www.w3.org/Graphics/SVG/1.1/DTD/svg11.dtd">
<svg width="100%" height="100%" viewBox="0 0 596 842" version="1.1" xmlns="http://www.w3.org/2000/svg" xmlns:xlink="http://www.w3.org/1999/xlink" xml:space="preserve" xmlns:serif="http://www.serif.com/" style="fill-rule:evenodd;clip-rule:evenodd;stroke-miterlimit:10;">
    <g id="circle---text" serif:id="circle &amp; text">
        <g id="circle-around-wug" serif:id="circle around wug">
            <g transform="matrix(0,-1,-1,0,297.638,275.647)">
                <circle cx="-145.298" cy="0" r="145.298" style="fill:none;stroke:rgb(32,58,116);stroke-width:36px;"/>
            </g>
            <g transform="matrix(0,-1,-1,0,297.638,257.103)">
                <ellipse cx="-161.842" cy="0" rx="161.842" ry="161.842" style="fill:none;stroke:rgb(29,29,27);stroke-width:8px;"/>
            </g>
            <g transform="matrix(0,-1,-1,0,297.638,293.671)">
                <circle cx="-127.274" cy="0" r="127.274" style="fill:none;stroke:rgb(29,29,27);stroke-width:8.85px;"/>
            </g>
        </g>
        <g id="text" transform="matrix(0,-1.00716,1.00716,0,297.638,275.607)">
            <g transform="matrix(0.881486,0.472211,-0.472211,0.881486,-68.3727,25.4797)">
                <text x="-84.947px" y="-123.473px" style="font-family:'ComicSansMS', 'Comic Sans MS', cursive;font-size:20px;fill:white;">*</text>
            </g>
            <g transform="matrix(0.764526,0.644592,-0.644592,0.764526,-85.0961,14.2129)">
                <text x="-62.002px" y="-109.366px" style="font-family:'ComicSansMS', 'Comic Sans MS', cursive;font-size:20px;fill:white;">F</text>
            </g>
            <g transform="matrix(0.61915,0.785273,-0.785273,0.61915,-87.1018,-1.61867)">
                <text x="-41.882px" y="-90.607px" style="font-family:'ComicSansMS', 'Comic Sans MS', cursive;font-size:20px;fill:white;">A</text>
            </g>
            <g transform="matrix(0.440976,0.897519,-0.897519,0.440976,-73.1467,-14.7375)">
                <text x="-24.743px" y="-66.088px" style="font-family:'ComicSansMS', 'Comic Sans MS', cursive;font-size:20px;fill:white;">C</text>
            </g>
            <g transform="matrix(0.241849,0.970314,-0.970314,0.241849,-50.2943,-17.5091)">
                <text x="-13.943px" y="-40.939px" style="font-family:'ComicSansMS', 'Comic Sans MS', cursive;font-size:20px;fill:white;">H</text>
            </g>
            <g transform="matrix(0.026948,0.999637,-0.999637,0.026948,-18.8533,-2.36814)">
                <text x="-8.21px" y="-10.868px" style="font-family:'ComicSansMS', 'Comic Sans MS', cursive;font-size:20px;fill:white;">S</text>
            </g>
            <g transform="matrix(-0.177582,0.984106,-0.984106,-0.177582,7.37526,30.4395)">
                <text x="-9.032px" y="18.302px" style="font-family:'ComicSansMS', 'Comic Sans MS', cursive;font-size:20px;fill:white;">C</text>
            </g>
            <g transform="matrix(-0.381128,0.924522,-0.924522,-0.381128,20.4772,76.1865)">
                <text x="-15.261px" y="44.947px" style="font-family:'ComicSansMS', 'Comic Sans MS', cursive;font-size:20px;fill:white;">H</text>
            </g>
            <g transform="matrix(-0.572613,0.819826,-0.819826,-0.572613,14.6939,137.463)">
                <text x="-28.484px" y="72.562px" style="font-family:'ComicSansMS', 'Comic Sans MS', cursive;font-size:20px;fill:white;">A</text>
            </g>
            <g transform="matrix(-0.732679,0.680574,-0.680574,-0.732679,-15.9924,198.382)">
                <text x="-46.957px" y="96.05px" style="font-family:'ComicSansMS', 'Comic Sans MS', cursive;font-size:20px;fill:white;">F</text>
            </g>
            <g transform="matrix(-0.856652,0.515894,-0.515894,-0.856652,-67.5668,246.292)">
                <text x="-68.001px" y="113.759px" style="font-family:'ComicSansMS', 'Comic Sans MS', cursive;font-size:20px;fill:white;">T</text>
            </g>
            <g transform="matrix(-0.939407,0.342805,-0.342805,-0.939407,-137.949,279.116)">
                <text x="-93.642px" y="127.366px" style="font-family:'ComicSansMS', 'Comic Sans MS', cursive;font-size:20px;fill:white;">*</text>
            </g>
            <g transform="matrix(-0.975024,-0.222101,0.222101,-0.975024,-173.043,-315.193)">
                <text x="-104.244px" y="-147.867px" style="font-family:'ComicSansMS', 'Comic Sans MS', cursive;font-size:20px;fill:white;">S</text>
            </g>
            <g transform="matrix(-0.999861,-0.0166472,0.0166472,-0.999861,-272.048,-308.574)">
                <text x="-137.309px" y="-153.155px" style="font-family:'ComicSansMS', 'Comic Sans MS', cursive;font-size:20px;fill:white;">P</text>
            </g>
            <g transform="matrix(-0.982791,0.184722,-0.184722,-0.982791,-359.724,-270.169)">
                <text x="-167.277px" y="-151.841px" style="font-family:'ComicSansMS', 'Comic Sans MS', cursive;font-size:20px;fill:white;">R</text>
            </g>
            <g transform="matrix(-0.920157,0.391551,-0.391551,-0.920157,-437.59,-198.631)">
                <text x="-198.543px" y="-143.931px" style="font-family:'ComicSansMS', 'Comic Sans MS', cursive;font-size:20px;fill:white;">A</text>
            </g>
            <g transform="matrix(-0.813339,0.581789,-0.581789,-0.813339,-490.32,-99.5027)">
                <text x="-229.198px" y="-128.408px" style="font-family:'ComicSansMS', 'Comic Sans MS', cursive;font-size:20px;fill:white;">C</text>
            </g>
            <g transform="matrix(-0.669586,0.742734,-0.742734,-0.669586,-504.384,7.52287)">
                <text x="-253.865px" y="-108.429px" style="font-family:'ComicSansMS', 'Comic Sans MS', cursive;font-size:20px;fill:white;">H</text>
            </g>
            <g transform="matrix(-0.465515,0.88504,-0.88504,-0.465515,-475.975,125.731)">
                <text x="-275.953px" y="-80.858px" style="font-family:'ComicSansMS', 'Comic Sans MS', cursive;font-size:20px;fill:white;">W</text>
            </g>
            <g transform="matrix(-0.249784,0.968302,-0.968302,-0.249784,-407.676,228.447)">
                <text x="-292.336px" y="-43.705px" style="font-family:'ComicSansMS', 'Comic Sans MS', cursive;font-size:20px;fill:white;">I</text>
            </g>
            <g transform="matrix(-0.0423885,0.999101,-0.999101,-0.0423885,-324.437,283.587)">
                <text x="-298.123px" y="-13.689px" style="font-family:'ComicSansMS', 'Comic Sans MS', cursive;font-size:20px;fill:white;">S</text>
            </g>
            <g transform="matrix(0.17449,0.984659,-0.984659,0.17449,-225.975,309.296)">
                <text x="-297.45px" y="19.878px" style="font-family:'ComicSansMS', 'Comic Sans MS', cursive;font-size:20px;fill:white;">S</text>
            </g>
            <g transform="matrix(0.382722,0.923863,-0.923863,0.382722,-130.229,299.829)">
                <text x="-289.487px" y="52.46px" style="font-family:'ComicSansMS', 'Comic Sans MS', cursive;font-size:20px;fill:white;">E</text>
            </g>
            <g transform="matrix(0.575834,0.817567,-0.817567,0.575834,-50.2138,259.69)">
                <text x="-275.379px" y="81.452px" style="font-family:'ComicSansMS', 'Comic Sans MS', cursive;font-size:20px;fill:white;">N</text>
            </g>
            <g transform="matrix(0.743731,0.668479,-0.668479,0.743731,8.20725,197.108)">
                <text x="-252.976px" y="109.259px" style="font-family:'ComicSansMS', 'Comic Sans MS', cursive;font-size:20px;fill:white;">S</text>
            </g>
            <g transform="matrix(0.868205,0.496206,-0.496206,0.868205,34.6448,129.615)">
                <text x="-226.676px" y="130.026px" style="font-family:'ComicSansMS', 'Comic Sans MS', cursive;font-size:20px;fill:white;">C</text>
            </g>
            <g transform="matrix(0.955262,0.295762,-0.295762,0.955262,33.7546,65.0584)">
                <text x="-198.171px" y="144.104px" style="font-family:'ComicSansMS', 'Comic Sans MS', cursive;font-size:20px;fill:white;">H</text>
            </g>
            <g transform="matrix(0.997244,0.0741958,-0.0741958,0.997244,10.8481,12.5896)">
                <text x="-164.024px" y="152.302px" style="font-family:'ComicSansMS', 'Comic Sans MS', cursive;font-size:20px;fill:white;">A</text>
            </g>
            <g transform="matrix(0.989547,-0.144212,0.144212,0.989547,-23.3668,-17.1092)">
                <text x="-129.702px" y="152.629px" style="font-family:'ComicSansMS', 'Comic Sans MS', cursive;font-size:20px;fill:white;">F</text>
            </g>
            <g transform="matrix(0.935725,-0.352731,0.352731,0.935725,-57.8967,-25.3535)">
                <text x="-98.516px" y="146.187px" style="font-family:'ComicSansMS', 'Comic Sans MS', cursive;font-size:20px;fill:white;">T</text>
            </g>
        </g>
    </g>
    <g id="wug">
        <g id="birb">
            <g transform="matrix(143.321,0,0,-143.321,219.661,411.172)">
                <path d="M0.506,0.542C0.438,0.533 0.367,0.523 0.299,0.469C0.235,0.418 0.209,0.355 0.19,0.309C0.149,0.21 0.148,0.123 0.148,0.054C0.149,-0.081 0.178,-0.122 0.156,-0.241C0.148,-0.287 0.135,-0.323 0.112,-0.357C0.075,-0.409 0.027,-0.436 0,-0.448C0.071,-0.48 0.188,-0.523 0.339,-0.53C0.428,-0.535 0.57,-0.54 0.722,-0.464C0.792,-0.429 0.941,-0.354 0.986,-0.196C0.992,-0.174 1.016,-0.088 0.983,0.007C0.949,0.102 0.874,0.163 0.869,0.168C0.827,0.201 0.793,0.204 0.776,0.243C0.757,0.285 0.771,0.329 0.773,0.338C0.778,0.356 0.787,0.385 0.81,0.4C0.84,0.42 0.883,0.408 0.915,0.396C0.939,0.387 0.958,0.377 0.96,0.382C0.967,0.393 0.897,0.465 0.792,0.509C0.717,0.54 0.647,0.548 0.592,0.548C0.555,0.548 0.525,0.544 0.506,0.542Z" style="fill:url(#_Linear1);fill-rule:nonzero;"/>
            </g>
            <g transform="matrix(1,0,0,1,240.941,415.837)">
                <path d="M0,-12.357C-0.01,-22.271 0.098,-34.816 5.956,-49C8.664,-55.557 12.405,-64.615 21.562,-71.922C31.273,-79.67 41.518,-81.014 51.289,-82.297C57.816,-83.154 74.144,-85.096 92.2,-77.601C107.344,-71.314 117.31,-61.043 116.376,-59.444C115.436,-57.836 102.402,-67.098 94.757,-61.98C91.471,-59.78 90.262,-55.653 89.505,-53.067C89.155,-51.873 87.281,-45.471 89.897,-39.56C92.407,-33.89 97.201,-33.438 103.211,-28.679C103.992,-28.061 114.744,-19.345 119.535,-5.644C124.306,8 120.963,20.284 120.045,23.486C113.575,46.067 92.219,56.778 82.238,61.784C60.396,72.739 40.049,71.956 27.257,71.309C5.721,70.22 -11.113,64.094 -21.281,59.501C-17.376,57.754 -10.507,53.998 -5.288,46.538C-1.865,41.646 -0.102,36.517 1.125,29.855C4.248,12.888 0.019,6.984 0,-12.357Z" style="fill:none;fill-rule:nonzero;stroke:white;stroke-width:5px;"/>
            </g>
        </g>
        <g id="birb-outline" serif:id="birb outline">
            <g id="s-curve" serif:id="s curve" transform="matrix(1,0,0,1,218.262,351.031)">
                <path d="M0,123.729C5.461,126.021 12.994,128.84 22.201,131.25C30.579,133.442 41.002,136.238 54.67,136.226C58.41,136.222 70.668,136.018 86.153,131.571C99.365,127.777 114.157,123.529 126.967,110.36C131.817,105.376 141.612,95.02 143.679,78.866C144.125,75.378 145.243,65.719 140.804,55.33C138.386,49.671 132.748,44.03 121.826,32.589C114.422,24.834 111.167,22.048 111.098,17.13C111.033,12.452 113.865,6.95 118.409,4.786C126.88,0.752 137.638,8.612 138.934,6.42C139.864,4.846 134.616,0.087 132.084,-2.209C126.631,-7.153 121.453,-10.437 117.738,-12.509" style="fill:none;fill-rule:nonzero;stroke:rgb(32,58,116);stroke-width:11px;"/>
            </g>
            <g id="eye" transform="matrix(0,-1,-1,0,303.174,373.527)">
                <circle cx="-4.254" cy="0" r="4.254" style="fill:none;stroke:rgb(1,2,3);stroke-width:11px;"/>
            </g>
            <g id="arm" transform="matrix(1,0,0,1,280.223,406.894)">
                <path d="M0,-2.316C-6.273,-1.207 -13.559,-0.345 -21.68,-0.148C-27.778,0 -33.393,-0.251 -38.432,-0.715" style="fill:none;fill-rule:nonzero;stroke:rgb(29,29,27);stroke-width:11px;stroke-linecap:round;"/>
            </g>
            <g id="f-curve" serif:id="f curve" transform="matrix(1,0,0,1,218.002,326.044)">
                <path d="M0,148.606C7.133,145.654 16.593,140.311 21.488,130.424C25.619,122.081 23.732,116.089 23.232,95.399C22.765,76.092 22.532,66.439 25.087,55.008C27.22,45.46 30.442,30.947 42.976,19.127C54.65,8.117 68.028,5.447 72.966,4.528C95.946,0.25 114.434,10.148 120.775,14.098C124.46,16.394 129.194,19.724 132.39,22.964C132.563,23.14 132.944,23.441 133.378,23.832C134.664,24.992 136.756,26.911 137.986,28.44C139.377,30.171 139.245,31.284 139.144,31.509" style="fill:none;fill-rule:nonzero;stroke:rgb(1,2,3);stroke-width:11px;stroke-linecap:round;"/>
            </g>
            <g id="left-leg" serif:id="left leg" transform="matrix(-0.999711,-0.0240355,-0.0240355,0.999711,304.949,506.113)">
                <path d="M23.753,-42.803C22.802,-40.439 21.946,-37.809 21.295,-34.923C18.297,-21.624 21.279,-10.024 23.753,-3.237C21.124,-3.809 17.715,-4.272 13.749,-4.101C7.034,-3.812 1.77,-1.841 -1.465,-0.308" style="fill:none;fill-rule:nonzero;stroke:rgb(29,29,27);stroke-width:8px;stroke-linecap:round;"/>
            </g>
            <g id="right-leg" serif:id="right leg" transform="matrix(-0.0780859,-0.996947,-0.996947,0.0780859,361.358,467.626)">
                <path d="M-35.585,-5.664C-34.62,-2.506 -33.683,1.692 -33.48,6.683C-33.201,13.567 -34.431,19.223 -35.585,23.01C-31.672,23.576 -27.416,24.394 -22.902,25.57C-15.182,27.58 -8.523,30.161 -3.005,32.732" style="fill:none;fill-rule:nonzero;stroke:rgb(29,29,27);stroke-width:8px;stroke-linecap:round;"/>
            </g>
        </g>
    </g>
    <defs>
        <linearGradient id="_Linear1" x1="0" y1="0" x2="1" y2="0" gradientUnits="userSpaceOnUse" gradientTransform="matrix(1,0,0,-1,0,0.00770245)"><stop offset="0" style="stop-color:rgb(46,176,232);stop-opacity:1"/><stop offset="1" style="stop-color:white;stop-opacity:1"/></linearGradient>
    </defs>
</svg>
